Coordinates
version=1
nRows=24
nColumns=24
inDegrees=yes

Units are S.I. units (second, meters, Newtons, ...)
Angles are in degrees.

endheader
time	pelvis_tilt	pelvis_list	pelvis_rotation	pelvis_tx	pelvis_ty	pelvis_tz	hip_flexion_r	hip_adduction_r	hip_rotation_r	knee_angle_r	ankle_angle_r	subtalar_angle_r	mtp_angle_r	hip_flexion_l	hip_adduction_l	hip_rotation_l	knee_angle_l	ankle_angle_l	subtalar_angle_l	mtp_angle_l	lumbar_extension	lumbar_bending	lumbar_rotation
      2.34000000	     65.67274477	    -15.04883328	      5.88771583	      0.53866765	      0.94970561	     -0.23625645	     -1.99153029	    -11.46669475	    -19.55253791	    -61.26064906	    -17.32126344	      0.00000000	      0.00000000	     20.32838610	    -11.63302600	     19.19352592	    -14.42943376	    -36.40386525	      0.00000000	      0.00000000	      0.00000000	      0.00000000	      0.00000000
      2.35000000	     65.68558537	    -15.04655105	      5.89699225	      0.53867688	      0.94970018	     -0.23627230	     -2.01547640	    -11.46519228	    -19.56153332	    -61.25543146	    -17.31802096	      0.00000000	      0.00000000	     20.31897553	    -11.63391750	     19.18036727	    -14.39957409	    -36.39831892	      0.00000000	      0.00000000	      0.00000000	      0.00000000	      0.00000000
      2.36000000	     65.69718909	    -15.04557312	      5.90265927	      0.53867883	      0.94969306	     -0.23628794	     -2.03417711	    -11.46373664	    -19.57081031	    -61.25556236	    -17.30802567	      0.00000000	      0.00000000	     20.30898912	    -11.63578152	     19.16349959	    -14.36545188	    -36.39014601	      0.00000000	      0.00000000	      0.00000000	      0.00000000	      0.00000000
      2.37000000	     65.70628046	    -15.04575804	      5.90494394	      0.53867913	      0.94969146	     -0.23629818	     -2.04732709	    -11.46219643	    -19.58032868	    -61.26025418	    -17.29194443	      0.00000000	      0.00000000	     20.29939286	    -11.63871004	     19.14326324	    -14.32655547	    -36.38019239	      0.00000000	      0.00000000	      0.00000000	      0.00000000	      0.00000000
      2.38000000	     65.71247421	    -15.04672578	      5.90439267	      0.53868533	      0.94969770	     -0.23630131	     -2.05552907	    -11.46021313	    -19.58934382	    -61.26809775	    -17.27190048	      0.00000000	      0.00000000	     20.29129606	    -11.64260606	     19.12055406	    -14.28293724	    -36.36931677	      0.00000000	      0.00000000	      0.00000000	      0.00000000	      0.00000000
      2.39000000	     65.71621298	    -15.04851883	      5.90214784	      0.53869797	      0.94971023	     -0.23628793	     -2.05983781	    -11.45744325	    -19.59662562	    -61.27712942	    -17.25099877	      0.00000000	      0.00000000	     20.28548118	    -11.64707454	     19.09679426	    -14.23531499	    -36.35852396	      0.00000000	      0.00000000	      0.00000000	      0.00000000	      0.00000000
      2.40000000	     65.71814355	    -15.05133960	      5.89964013	      0.53871181	      0.94972303	     -0.23625749	     -2.06142004	    -11.45329617	    -19.60126100	    -61.28529965	    -17.23256114	      0.00000000	      0.00000000	     20.28181230	    -11.65153463	     19.07373709	    -14.18508757	    -36.34892882	      0.00000000	      0.00000000	      0.00000000	      0.00000000	      0.00000000
      2.41000000	     65.71874123	    -15.05492987	      5.89780440	      0.53872115	      0.94972771	     -0.23623245	     -2.06144003	    -11.44674994	    -19.60351506	    -61.29108058	    -17.21925292	      0.00000000	      0.00000000	     20.27923015	    -11.65549600	     19.05314117	    -14.13405490	    -36.34152431	      0.00000000	      0.00000000	      0.00000000	      0.00000000	      0.00000000
      2.42000000	     65.71858129	    -15.05912058	      5.89686737	      0.53872330	      0.94972623	     -0.23622586	     -2.06092468	    -11.43730833	    -19.60478960	    -61.29363244	    -17.21236843	      0.00000000	      0.00000000	     20.27639310	    -11.65872448	     19.03639881	    -14.08391775	    -36.33690466	      0.00000000	      0.00000000	      0.00000000	      0.00000000	      0.00000000
      2.43000000	     65.71854044	    -15.06431900	      5.89657981	      0.53872036	      0.94973408	     -0.23622739	     -2.06077651	    -11.42586029	    -19.60688474	    -61.29268854	    -17.21147822	      0.00000000	      0.00000000	     20.27241787	    -11.66144964	     19.02425939	    -14.03590350	    -36.33514258	      0.00000000	      0.00000000	      0.00000000	      0.00000000	      0.00000000
      2.44000000	     65.71935456	    -15.07079695	      5.89632252	      0.53871674	      0.94975943	     -0.23623163	     -2.06205214	    -11.41414804	    -19.61127112	    -61.28848014	    -17.21453822	      0.00000000	      0.00000000	     20.26722641	    -11.66458748	     19.01675543	    -13.99066801	    -36.33587278	      0.00000000	      0.00000000	      0.00000000	      0.00000000	      0.00000000
      2.45000000	     65.72107167	    -15.07824480	      5.89540076	      0.53871574	      0.94978750	     -0.23623416	     -2.06585629	    -11.40368036	    -19.61855005	    -61.28152635	    -17.21846098	      0.00000000	      0.00000000	     20.26120545	    -11.66946566	     19.01336825	    -13.94840055	    -36.33851615	      0.00000000	      0.00000000	      0.00000000	      0.00000000	      0.00000000
      2.46000000	     65.72317015	    -15.08605559	      5.89348928	      0.53871903	      0.94979908	     -0.23621917	     -2.07259658	    -11.39483171	    -19.62820206	    -61.27236374	    -17.21999967	      0.00000000	      0.00000000	     20.25456519	    -11.67702384	     19.01338005	    -13.90890857	    -36.34251814	      0.00000000	      0.00000000	      0.00000000	      0.00000000	      0.00000000
      2.47000000	     65.72517527	    -15.09359192	      5.89081912	      0.53872737	      0.94979942	     -0.23618676	     -2.08132719	    -11.38656345	    -19.63872663	    -61.26141565	    -17.21667846	      0.00000000	      0.00000000	     20.24709519	    -11.68717857	     19.01623050	    -13.87157969	    -36.34746913	      0.00000000	      0.00000000	      0.00000000	      0.00000000	      0.00000000
      2.48000000	     65.72684006	    -15.10056901	      5.88798589	      0.53873961	      0.94980966	     -0.23615987	     -2.09010010	    -11.37740534	    -19.64809347	    -61.24895028	    -17.20748591	      0.00000000	      0.00000000	     20.23846538	    -11.69890288	     19.02168060	    -13.83539207	    -36.35307973	      0.00000000	      0.00000000	      0.00000000	      0.00000000	      0.00000000
      2.49000000	     65.72774495	    -15.10739615	      5.88549669	      0.53875177	      0.94983214	     -0.23615322	     -2.09717715	    -11.36694293	    -19.65438361	    -61.23522007	    -17.19315494	      0.00000000	      0.00000000	     20.22877897	    -11.71091665	     19.02967768	    -13.79907962	    -36.35907512	      0.00000000	      0.00000000	      0.00000000	      0.00000000	      0.00000000
      2.50000000	     65.72726870	    -15.11483282	      5.88354756	      0.53876100	      0.94984758	     -0.23616031	     -2.10168664	    -11.35627709	    -19.65645876	    -61.22081485	    -17.17599835	      0.00000000	      0.00000000	     20.21886511	    -11.72243390	     19.03994832	    -13.76145984	    -36.36510154	      0.00000000	      0.00000000	      0.00000000	      0.00000000	      0.00000000
      2.51000000	     65.72511637	    -15.12332163	      5.88216784	      0.53877115	      0.94984445	     -0.23616398	     -2.10323996	    -11.34716616	    -19.65445351	    -61.20701754	    -17.15936011	      0.00000000	      0.00000000	     20.20997537	    -11.73332000	     19.05151660	    -13.72186520	    -36.37072810	      0.00000000	      0.00000000	      0.00000000	      0.00000000	      0.00000000
      2.52000000	     65.72143542	    -15.13248186	      5.88111091	      0.53878738	      0.94983023	     -0.23615307	     -2.10161448	    -11.34051670	    -19.64996124	    -61.19596645	    -17.14680131	      0.00000000	      0.00000000	     20.20310455	    -11.74358311	     19.06246473	    -13.68047898	    -36.37555404	      0.00000000	      0.00000000	      0.00000000	      0.00000000	      0.00000000
      2.53000000	     65.71644478	    -15.14093489	      5.87960776	      0.53880736	      0.94981606	     -0.23614085	     -2.09692515	    -11.33554106	    -19.64557384	    -61.19017028	    -17.14116316	      0.00000000	      0.00000000	     20.19855081	    -11.75296219	     19.07017648	    -13.63830441	    -36.37932898	      0.00000000	      0.00000000	      0.00000000	      0.00000000	      0.00000000
      2.54000000	     65.71031475	    -15.14743420	      5.87714972	      0.53882508	      0.94980568	     -0.23614950	     -2.08965240	    -11.33110600	    -19.64332808	    -61.19103943	    -17.14369715	      0.00000000	      0.00000000	     20.19600540	    -11.76110854	     19.07197564	    -13.59672036	    -36.38198647	      0.00000000	      0.00000000	      0.00000000	      0.00000000	      0.00000000
      2.55000000	     65.70334347	    -15.15242033	      5.87456173	      0.53884140	      0.94980098	     -0.23617073	     -2.08046772	    -11.32766027	    -19.64314593	    -61.19764431	    -17.15365744	      0.00000000	      0.00000000	     20.19489268	    -11.76793682	     19.06581037	    -13.55688819	    -36.38358997	      0.00000000	      0.00000000	      0.00000000	      0.00000000	      0.00000000
      2.56000000	     65.69598387	    -15.15712049	      5.87295552	      0.53886283	      0.94980503	     -0.23618012	     -2.07038869	    -11.32615849	    -19.64335254	    -61.20745667	    -17.16873182	      0.00000000	      0.00000000	     20.19462821	    -11.77363353	     19.05070314	    -13.51926954	    -36.38426053	      0.00000000	      0.00000000	      0.00000000	      0.00000000	      0.00000000
      2.57000000	     65.68882151	    -15.16149921	      5.87180179	      0.53888946	      0.94981349	     -0.23618285	     -2.06089706	    -11.32570797	    -19.64259543	    -61.21812580	    -17.18602762	      0.00000000	      0.00000000	     20.19469259	    -11.77859571	     19.02687510	    -13.48341543	    -36.38413129	      0.00000000	      0.00000000	      0.00000000	      0.00000000	      0.00000000
